<?xml version="1.0" encoding="UTF-8" standalone="no"?>
<!-- Created with Inkscape (http://www.inkscape.org/) -->

<svg
   width="150mm"
   height="150mm"
   viewBox="0 0 150 150"
   version="1.1"
   id="svg5"
   xml:space="preserve"
   inkscape:export-filename="cw.svg"
   inkscape:export-xdpi="96"
   inkscape:export-ydpi="96"
   xmlns:inkscape="http://www.inkscape.org/namespaces/inkscape"
   xmlns:sodipodi="http://sodipodi.sourceforge.net/DTD/sodipodi-0.dtd"
   xmlns="http://www.w3.org/2000/svg"
   xmlns:svg="http://www.w3.org/2000/svg"><sodipodi:namedview
     id="namedview7"
     pagecolor="#ffffff"
     bordercolor="#999999"
     borderopacity="1"
     inkscape:showpageshadow="0"
     inkscape:pageopacity="0"
     inkscape:pagecheckerboard="0"
     inkscape:deskcolor="#d1d1d1"
     inkscape:document-units="mm"
     showgrid="false" /><defs
     id="defs2" /><g
     inkscape:label="Layer 1"
     inkscape:groupmode="layer"
     id="layer1"
     transform="translate(83.171284,-66.630634)"><path
       style="display:inline;fill:#ffffff;fill-opacity:1;stroke-width:0.264583"
       d="m -48.917203,198.91284 c 0.790421,-0.80037 1.496663,-1.45521 1.569424,-1.45521 0.07276,0 -0.514419,0.65484 -1.304841,1.45521 -0.790421,0.80036 -1.496663,1.4552 -1.569424,1.4552 -0.07276,0 0.514419,-0.65484 1.304841,-1.4552 z m 7.403605,-7.34219 c 1.525371,-1.56435 2.805293,-2.84427 2.844271,-2.84427 0.191085,0 -0.131577,0.33915 -2.773397,2.91514 l -2.844271,2.7734 z m -39.06475,-6.69852 c -0.08752,-0.22806 -0.05401,-0.51976 0.07445,-0.64822 0.135038,-0.13504 0.23357,0.0399 0.23357,0.41466 0,0.75112 -0.08475,0.81539 -0.30802,0.23356 z m 44.997465,-0.70981 -0.504028,-0.59532 0.595312,0.50403 c 0.559446,0.47366 0.715762,0.6866 0.504029,0.6866 -0.05021,0 -0.318098,-0.26789 -0.595313,-0.59531 z m 15.310742,-4.16719 c 0,-0.65485 0.0516,-0.92274 0.114663,-0.59531 0.06307,0.32742 0.06307,0.8632 0,1.19062 -0.06306,0.32742 -0.114663,0.0595 -0.114663,-0.59531 z m -57.358967,-30.95625 c 0,-15.93453 0.03182,-22.4532 0.07071,-14.48594 0.03889,7.96727 0.03889,21.00461 0,28.97188 -0.03889,7.96726 -0.07071,1.44859 -0.07071,-14.48594 z m 68.9494612,28.55835 c -0.011483,-0.22743 0.3660643,-0.76321 0.839007,-1.19062 l 0.8598958,-0.77711 -0.6945947,0.79375 c -0.3820266,0.43657 -0.7595818,0.97235 -0.839007,1.19063 -0.1244018,0.34188 -0.1473095,0.33957 -0.1653011,-0.0166 z M -20.300428,128.93055 c 0,-0.36381 0.06006,-0.51263 0.133454,-0.33073 0.0734,0.1819 0.0734,0.47955 0,0.66146 -0.0734,0.1819 -0.133454,0.0331 -0.133454,-0.33073 z m 17.1979175,-1.85209 c 0,-0.3638 0.060055,-0.51263 0.1334532,-0.33073 0.073398,0.1819 0.073398,0.47956 0,0.66146 -0.073398,0.1819 -0.1334532,0.0331 -0.1334532,-0.33073 z M -3.38798,124.54287 c 0.0127,-0.30822 0.07539,-0.37092 0.1598506,-0.15985 0.07643,0.19099 0.067032,0.4192 -0.020876,0.50712 -0.087918,0.0879 -0.1504527,-0.0684 -0.1389645,-0.34727 z m -36.268806,-1.83003 c 0.790421,-0.80037 1.496663,-1.45521 1.569423,-1.45521 0.07276,0 -0.514418,0.65484 -1.30484,1.45521 -0.790422,0.80036 -1.496663,1.45521 -1.569424,1.45521 -0.07276,0 0.514419,-0.65485 1.304841,-1.45521 z m 100.878314,-2.24896 c 0,-0.65484 0.0516,-0.92273 0.114662,-0.59531 0.06307,0.32742 0.06307,0.8632 0,1.19062 -0.06306,0.32742 -0.114662,0.0595 -0.114662,-0.59531 z m -32.019924,-0.92604 c 0.0029,-0.58209 0.05712,-0.78906 0.120407,-0.45994 0.06329,0.32912 0.06088,0.80537 -0.0053,1.05834 -0.06622,0.25296 -0.118004,-0.0163 -0.115067,-0.5984 z m 13.393278,-2.97656 c -0.329107,-0.41965 -0.319749,-0.42901 0.0999,-0.0999 0.254661,0.19972 0.463021,0.40808 0.463021,0.46302 0,0.21776 -0.217273,0.0776 -0.562917,-0.36312 z m -32.279168,-0.26459 c -0.3291068,-0.41964 -0.3197485,-0.429 0.0999,-0.0999 0.254661,0.19972 0.46302,0.40808 0.46302,0.46302 0,0.21776 -0.217273,0.0776 -0.562917,-0.36313 z m -68.108908,-1.45521 -1.045884,-1.12448 1.124479,1.04589 c 1.045755,0.97266 1.246063,1.20307 1.045884,1.20307 -0.04323,0 -0.549243,-0.50601 -1.124479,-1.12448 z m 25.941616,0.33073 c 0.26339,-0.29104 0.538422,-0.52916 0.611182,-0.52916 0.07276,0 -0.08321,0.23812 -0.346598,0.52916 -0.263391,0.29104 -0.538422,0.52917 -0.611183,0.52917 -0.07276,0 0.08321,-0.23813 0.346599,-0.52917 z m 95.117711,-1.71979 c 0.341775,-0.3638 0.680939,-0.66146 0.7537,-0.66146 0.07276,0 -0.147342,0.29766 -0.489117,0.66146 -0.341776,0.3638 -0.68094,0.66146 -0.7537,0.66146 -0.07276,0 0.147341,-0.29766 0.489117,-0.66146 z m -24.606251,-0.74425 c 0,-0.0455 0.386953,-0.43249 0.859896,-0.85989 l 0.859896,-0.77711 -0.777105,0.8599 c -0.724371,0.80154 -0.942687,0.98151 -0.942687,0.7771 z M 7.7036313,111.89732 c 0,-0.0549 0.2083594,-0.2633 0.4630209,-0.46302 0.419645,-0.32911 0.4290033,-0.31975 0.099896,0.0999 -0.3456438,0.44073 -0.562917,0.58089 -0.562917,0.36313 z m 2.6458337,-2.41365 c 0.341775,-0.3638 0.680939,-0.66146 0.7537,-0.66146 0.07276,0 -0.147341,0.29766 -0.489117,0.66146 -0.341775,0.3638 -0.6809396,0.66146 -0.7537,0.66146 -0.07276,0 0.147341,-0.29766 0.489117,-0.66146 z m -50.304585,-0.0661 c -0.329107,-0.41965 -0.319749,-0.42901 0.0999,-0.0999 0.44073,0.34564 0.580888,0.56292 0.363125,0.56292 -0.05494,0 -0.2633,-0.20836 -0.463021,-0.46302 z m 82.054585,0.0985 c 0,-0.0549 0.20836,-0.2633 0.463021,-0.46302 0.419645,-0.32911 0.429004,-0.31975 0.0999,0.0999 -0.345643,0.44073 -0.562917,0.58089 -0.562917,0.36313 z m -69.829112,-0.58361 c 0.0127,-0.30823 0.07539,-0.37092 0.15985,-0.15986 0.07643,0.191 0.06703,0.4192 -0.02088,0.50712 -0.08792,0.0879 -0.150453,-0.0683 -0.138965,-0.34726 z m -13.936652,-0.97014 -0.504029,-0.59532 0.595312,0.50403 c 0.559446,0.47367 0.715762,0.6866 0.504029,0.6866 -0.05021,0 -0.318098,-0.26789 -0.595312,-0.59531 z m 86.808473,-1.25677 c 0.26339,-0.29105 0.538422,-0.52917 0.611182,-0.52917 0.07276,0 -0.08321,0.23812 -0.346599,0.52917 -0.26339,0.29104 -0.538422,0.52916 -0.611182,0.52916 -0.07276,0 0.08321,-0.23812 0.346599,-0.52916 z m -73.090571,-1.19063 c 0.0029,-0.58208 0.05712,-0.78905 0.120407,-0.45993 0.06329,0.32911 0.06088,0.80536 -0.0053,1.05833 -0.06622,0.25296 -0.118004,-0.0163 -0.115067,-0.5984 z m 42.13432,0.39688 c 0.26339,-0.29105 0.538422,-0.52917 0.611182,-0.52917 0.07276,0 -0.08321,0.23812 -0.346599,0.52917 -0.26339,0.29104 -0.538421,0.52916 -0.611182,0.52916 -0.07276,0 0.08321,-0.23812 0.346599,-0.52916 z m 9.623542,0.0661 c -0.329108,-0.41964 -0.319749,-0.429 0.0999,-0.0999 0.44073,0.34564 0.580887,0.56291 0.363125,0.56291 -0.05494,0 -0.263301,-0.20836 -0.463021,-0.46302 z m 32.014584,0 c -0.329108,-0.41964 -0.319749,-0.429 0.0999,-0.0999 0.44073,0.34564 0.580887,0.56291 0.363125,0.56291 -0.05494,0 -0.2633,-0.20836 -0.463021,-0.46302 z m -100.277086,-0.52916 c -0.329107,-0.41965 -0.319749,-0.42901 0.0999,-0.0999 0.44073,0.34564 0.580888,0.56292 0.363125,0.56292 -0.05494,0 -0.2633,-0.20836 -0.463021,-0.46302 z m 27.657571,-0.92605 -0.504028,-0.59531 0.595312,0.50403 c 0.559446,0.47366 0.715762,0.6866 0.504029,0.6866 -0.05021,0 -0.318098,-0.26789 -0.595313,-0.59532 z m 39.017431,0.1323 c -0.329108,-0.41965 -0.319749,-0.42901 0.0999,-0.0999 0.44073,0.34564 0.580887,0.56292 0.363125,0.56292 -0.05494,0 -0.263301,-0.20836 -0.463021,-0.46302 z m 32.014584,0 c -0.329108,-0.41965 -0.319749,-0.42901 0.0999,-0.0999 0.44073,0.34564 0.580887,0.56292 0.363125,0.56292 -0.05494,0 -0.263301,-0.20836 -0.463021,-0.46302 z m -101.979772,-2.24896 -0.777105,-0.8599 0.859896,0.77711 c 0.801544,0.72437 0.981511,0.94268 0.777105,0.94268 -0.04554,0 -0.432488,-0.38695 -0.859896,-0.85989 z m 64.707271,0.7771 c 0,-0.0455 0.386953,-0.43249 0.859896,-0.85989 l 0.859896,-0.77711 -0.777105,0.8599 c -0.724371,0.80154 -0.942687,0.98151 -0.942687,0.7771 z m 2.082917,-1.17398 c -0.329108,-0.41964 -0.319749,-0.429 0.0999,-0.0999 0.440729,0.34564 0.580887,0.56291 0.363125,0.56291 -0.05494,0 -0.263301,-0.20836 -0.463021,-0.46302 z m 32.014584,0 c -0.329108,-0.41964 -0.319749,-0.429 0.0999,-0.0999 0.440729,0.34564 0.580887,0.56291 0.363125,0.56291 -0.05494,0 -0.263301,-0.20836 -0.463021,-0.46302 z M -19.26298,99.142874 c 0.0127,-0.308226 0.07539,-0.370919 0.15985,-0.159853 0.07643,0.190994 0.06703,0.419197 -0.02088,0.507119 -0.08792,0.08792 -0.150453,-0.06835 -0.138965,-0.347266 z m 0.03069,-1.300869 c 0.0054,-0.436563 0.06469,-0.583126 0.131773,-0.325694 0.06708,0.257431 0.06267,0.614619 -0.0098,0.79375 -0.07248,0.179131 -0.127362,-0.03149 -0.12197,-0.468056 z m -2.168247,-5.820833 c 0.341776,-0.363802 0.68094,-0.661459 0.7537,-0.661459 0.07276,0 -0.147341,0.297657 -0.489117,0.661459 -0.341775,0.363802 -0.680939,0.661458 -0.7537,0.661458 -0.07276,0 0.147342,-0.297656 0.489117,-0.661458 z"
       id="path890" /><path
       style="display:inline;fill:#ffffff;fill-opacity:1;stroke-width:0.264583"
       d="m -51.03387,201.32648 c 0,-0.0549 0.208359,-0.2633 0.463021,-0.46302 0.419645,-0.32911 0.429003,-0.31975 0.0999,0.0999 -0.345644,0.44073 -0.562917,0.58088 -0.562917,0.36312 z m 5.159375,-5.45635 c 0.864016,-0.87313 1.630466,-1.5875 1.703226,-1.5875 0.07276,0 -0.574627,0.71437 -1.438642,1.5875 -0.864016,0.87312 -1.630466,1.5875 -1.703227,1.5875 -0.07276,0 0.574628,-0.71438 1.438643,-1.5875 z m 57.612062,-42.3125 c -0.06073,-33.38062 -0.09617,-35.86781 -0.518385,-36.38021 l -0.4532,-0.55 0.586447,0.53747 0.586449,0.53748 -0.06806,35.84273 -0.06806,35.84274 z m 32.014584,-0.0341 c -0.04242,-23.33701 -0.157274,-35.9755 -0.328824,-36.18272 -0.14999,-0.18117 -0.09255,-0.17098 0.133246,0.0236 0.349785,0.30148 0.388811,4.59558 0.328827,36.18271 l -0.06806,35.84065 z m -82.350604,35.13004 c 0,-0.04 0.922734,-0.96276 2.050521,-2.05052 l 2.050521,-1.97775 -1.977753,2.05052 c -1.836893,1.90448 -2.123289,2.17124 -2.123289,1.97775 z m 15.366723,-1.81307 c -0.01148,-0.23684 0.18747,-0.59402 0.442132,-0.79375 0.402351,-0.31554 0.424341,-0.31112 0.167817,0.0338 -0.162362,0.21829 -0.361321,0.57547 -0.442132,0.79375 -0.122907,0.33199 -0.150344,0.32647 -0.167817,-0.0337 z m -20.707999,-1.73448 c 0.190995,-0.0764 0.419198,-0.067 0.507119,0.0209 0.08792,0.0879 -0.06835,0.15045 -0.347266,0.13897 -0.308226,-0.0127 -0.370919,-0.0754 -0.159853,-0.15986 z m -36.198308,-1.24208 c 0,-0.0549 0.208359,-0.2633 0.463021,-0.46302 0.419644,-0.32911 0.429002,-0.31975 0.09989,0.0999 -0.345643,0.44073 -0.562915,0.58088 -0.562915,0.36312 z m 43.371641,-0.89229 -0.641432,-0.7276 0.727604,0.64143 c 0.680056,0.59952 0.84894,0.81377 0.641432,0.81377 -0.04739,0 -0.374814,-0.32742 -0.727604,-0.7276 z m -1.435182,-0.0661 c 0.26339,-0.29105 0.538422,-0.52917 0.611182,-0.52917 0.07276,0 -0.08321,0.23812 -0.346599,0.52917 -0.26339,0.29104 -0.538421,0.52916 -0.611182,0.52916 -0.07276,0 0.08321,-0.23812 0.346599,-0.52916 z m 99.47897,-30.82396 c -1.1e-5,-16.88042 0.0317,-23.82499 0.07046,-15.43239 0.03876,8.39261 0.03877,22.20386 1.6e-5,30.69167 -0.03875,8.48781 -0.07047,1.62113 -0.07048,-15.25928 z M 29.256905,181.2519 c -0.06927,-0.1819 -0.09529,-13.96339 -0.05782,-30.62552 l 0.06814,-30.29479 0.132265,30.62553 c 0.07275,16.84405 0.09877,30.62553 0.05782,30.62552 -0.04095,-1e-5 -0.13113,-0.14884 -0.200403,-0.33074 z m -107.257387,-1.67569 c 0.01269,-0.30823 0.07539,-0.37092 0.159852,-0.15986 0.07643,0.191 0.06703,0.4192 -0.02089,0.50712 -0.08792,0.0879 -0.150453,-0.0684 -0.138964,-0.34726 z m 57.785237,-25.37796 c 1.6e-5,-13.67895 0.03216,-19.23611 0.07143,-12.34923 0.03927,6.88688 0.03926,18.07876 -2.7e-5,24.87084 -0.03928,6.79207 -0.07142,1.15735 -0.0714,-12.52161 z m 17.4603494,-7.8052 c 0,-9.53162 0.033078,-13.43092 0.073504,-8.66511 0.040426,4.76581 0.040426,12.5644 0,17.33021 -0.040426,4.76581 -0.073504,0.86651 -0.073504,-8.6651 z M -20.585897,127.18871 c 0.0127,-0.30823 0.07539,-0.37092 0.159851,-0.15986 0.07643,0.191 0.06703,0.4192 -0.02088,0.50712 -0.08792,0.0879 -0.150453,-0.0684 -0.138964,-0.34726 z m 17.4625003,-1.05834 c 0.0127,-0.30822 0.07539,-0.37092 0.1598507,-0.15985 0.07643,0.19099 0.067032,0.4192 -0.020876,0.50712 -0.087918,0.0879 -0.1504526,-0.0683 -0.1389644,-0.34727 z m -38.5177643,-1.43316 c 0.26339,-0.29104 0.538421,-0.52916 0.611182,-0.52916 0.07276,0 -0.08321,0.23812 -0.346599,0.52916 -0.26339,0.29104 -0.538422,0.52917 -0.611182,0.52917 -0.07276,0 0.08321,-0.23813 0.346599,-0.52917 z m -12.989722,-6.94531 -0.504029,-0.59531 0.595313,0.50403 c 0.559445,0.47366 0.715761,0.68659 0.504028,0.68659 -0.05021,0 -0.318097,-0.26789 -0.595312,-0.59531 z m 21.191805,-0.99219 c 0.568389,-0.58208 1.092967,-1.05833 1.165728,-1.05833 0.07276,0 -0.332756,0.47625 -0.901145,1.05833 -0.568388,0.58209 -1.092967,1.05834 -1.165727,1.05834 -0.07276,0 0.332756,-0.47625 0.901144,-1.05834 z m 24.8541891,-3.77031 -0.7771051,-0.8599 0.8598958,0.77711 c 0.8015447,0.72437 0.9815116,0.94269 0.7771051,0.94269 -0.045535,0 -0.4324879,-0.38696 -0.8598958,-0.8599 z m 40.6719629,-0.46302 c 0,-0.3638 0.06005,-0.51263 0.133453,-0.33073 0.0734,0.1819 0.0734,0.47956 0,0.66146 -0.0734,0.1819 -0.133453,0.0331 -0.133453,-0.33073 z m -25.1771927,-0.0999 c 0,-0.0549 0.2083594,-0.2633 0.4630209,-0.46302 0.419645,-0.3291 0.4290033,-0.31975 0.099896,0.0999 -0.3456437,0.44073 -0.5629169,0.58089 -0.5629169,0.36312 z m 1.5875001,-1.32291 c 0,-0.0549 0.2083593,-0.2633 0.4630208,-0.46302 0.419645,-0.32911 0.4290034,-0.31975 0.099896,0.0999 -0.3456438,0.44073 -0.5629169,0.58089 -0.5629169,0.36313 z m 31.7500006,0 c 0,-0.0549 0.208359,-0.2633 0.463021,-0.46302 0.419645,-0.32911 0.429003,-0.31975 0.0999,0.0999 -0.345644,0.44073 -0.562917,0.58089 -0.562917,0.36313 z m -79.408752,-1.15688 c -0.329107,-0.41964 -0.319749,-0.429 0.0999,-0.0999 0.254662,0.19972 0.463021,0.40808 0.463021,0.46302 0,0.21776 -0.217273,0.0776 -0.562917,-0.36313 z m 11.431723,-0.22048 c 0.0127,-0.30823 0.07539,-0.37092 0.15985,-0.15986 0.07643,0.191 0.06703,0.4192 -0.02088,0.50712 -0.08792,0.0879 -0.150453,-0.0683 -0.138965,-0.34726 z m -13.019223,-1.10243 c -0.329107,-0.41965 -0.319749,-0.42901 0.0999,-0.0999 0.44073,0.34564 0.580888,0.56292 0.363125,0.56292 -0.05494,0 -0.2633,-0.20836 -0.463021,-0.46302 z m 51.892085,0.11564 c 0,-0.0455 0.386953,-0.43249 0.859896,-0.85989 l 0.859895,-0.77711 -0.777105,0.8599 c -0.724371,0.80154 -0.942686,0.98151 -0.942686,0.7771 z m 32.146875,-0.44637 c 0.26339,-0.29105 0.538422,-0.52917 0.611183,-0.52917 0.07276,0 -0.08321,0.23812 -0.346599,0.52917 -0.26339,0.29104 -0.538422,0.52916 -0.611182,0.52916 -0.07276,0 0.08321,-0.23812 0.346598,-0.52916 z m -71.243826,-1.05834 c 0,-0.50932 0.05445,-0.71768 0.121002,-0.46302 0.06655,0.25466 0.06655,0.67138 0,0.92604 -0.06655,0.25467 -0.121002,0.0463 -0.121002,-0.46302 z m -14.770897,-0.33073 -0.504028,-0.59531 0.595312,0.50403 c 0.559446,0.47366 0.715762,0.6866 0.504029,0.6866 -0.05021,0 -0.318098,-0.26789 -0.595313,-0.59532 z m 67.327848,-0.39687 c -0.329108,-0.41965 -0.319749,-0.429 0.0999,-0.0999 0.44073,0.34565 0.580887,0.56292 0.363125,0.56292 -0.05494,0 -0.2633,-0.20836 -0.463021,-0.46302 z m 32.014584,0 c -0.329107,-0.41965 -0.319749,-0.429 0.0999,-0.0999 0.44073,0.34565 0.580887,0.56292 0.363125,0.56292 -0.05494,0 -0.2633,-0.20836 -0.463021,-0.46302 z m -8.6975,-2.57969 c 1.2305,-1.23693 2.296805,-2.24896 2.369566,-2.24896 0.07276,0 -0.874482,1.01203 -2.104983,2.24896 -1.2305,1.23693 -2.296805,2.24896 -2.369566,2.24896 -0.07276,0 0.874482,-1.01203 2.104983,-2.24896 z m -63.798335,1.52136 c -0.329107,-0.41965 -0.319749,-0.42901 0.0999,-0.0999 0.44073,0.34564 0.580887,0.56292 0.363125,0.56292 -0.05494,0 -0.2633,-0.20836 -0.463021,-0.46302 z m 38.893751,-0.26459 c -0.329108,-0.41964 -0.319749,-0.429 0.0999,-0.0999 0.254661,0.19972 0.463021,0.40808 0.463021,0.46302 0,0.21776 -0.217274,0.0776 -0.562917,-0.36313 z m 32.014584,0 c -0.329108,-0.41964 -0.319749,-0.429 0.0999,-0.0999 0.44073,0.34564 0.580887,0.56291 0.363125,0.56291 -0.05494,0 -0.263301,-0.20836 -0.463021,-0.46302 z M 15.773423,104.3243 c 0.568389,-0.58209 1.092967,-1.05834 1.165728,-1.05834 0.07276,0 -0.332756,0.47625 -0.901144,1.05834 -0.568389,0.58208 -1.092968,1.05833 -1.165728,1.05833 -0.07276,0 0.332756,-0.47625 0.901144,-1.05833 z m -61.143889,0.19843 -0.504029,-0.59531 0.595313,0.50403 c 0.559445,0.47366 0.715761,0.6866 0.504028,0.6866 -0.05021,0 -0.318098,-0.26789 -0.595312,-0.59532 z m 17.397122,-0.46302 c 0,-0.3638 0.06006,-0.51263 0.133453,-0.33073 0.0734,0.18191 0.0734,0.47956 0,0.66146 -0.0734,0.1819 -0.133453,0.0331 -0.133453,-0.33073 z m 49.401559,-0.19843 c -0.329108,-0.41965 -0.319749,-0.42901 0.0999,-0.0999 0.254661,0.19972 0.463021,0.40808 0.463021,0.46302 0,0.21776 -0.217274,0.0776 -0.562917,-0.36312 z m 32.014584,0 c -0.329108,-0.41965 -0.319749,-0.42901 0.0999,-0.0999 0.44073,0.34564 0.580887,0.56292 0.363125,0.56292 -0.05494,0 -0.263301,-0.20836 -0.463021,-0.46302 z m -33.46118,-1.19063 -0.504029,-0.59531 0.595312,0.50403 c 0.327422,0.27721 0.595313,0.5451 0.595313,0.59531 0,0.21173 -0.212934,0.0554 -0.686596,-0.50403 z m 32.014584,0 -0.504029,-0.59531 0.595312,0.50403 c 0.327422,0.27721 0.595313,0.5451 0.595313,0.59531 0,0.21173 -0.212934,0.0554 -0.686596,-0.50403 z M -48.98776,101.64563 c 0.179478,-0.18082 0.39297,-0.26211 0.474433,-0.18065 0.08146,0.0815 -0.06538,0.22941 -0.326319,0.32876 -0.377084,0.14359 -0.407474,0.1132 -0.148114,-0.14811 z m 25.205974,-7.210813 c 0,-0.05494 0.208359,-0.2633 0.463021,-0.463021 0.419645,-0.329107 0.429003,-0.319748 0.0999,0.0999 -0.345644,0.440729 -0.562917,0.580887 -0.562917,0.363124 z m 3.175,-3.175 c 0,-0.05494 0.208359,-0.2633 0.463021,-0.46302 0.419645,-0.329108 0.429003,-0.319749 0.0999,0.0999 -0.345644,0.440729 -0.562917,0.580887 -0.562917,0.363124 z m 4.850694,-1.872839 c 0,-0.211881 0.101161,-0.322716 0.224803,-0.246302 0.12364,0.07641 0.156303,0.24977 0.07258,0.385237 -0.213948,0.346175 -0.297381,0.307197 -0.297381,-0.138935 z"
       id="path888" /><path
       style="fill:#000000;fill-opacity:1;stroke-width:0.244933"
       d="M -83.171284,141.63064 V 66.630634 H -8.1712844 66.828716 v 75.000006 74.99999 H -8.1712844 -83.171284 Z m 41.531827,39.24751 7.871423,-7.27248 -1.224925,-1.10471 c -0.673709,-0.60759 -1.359088,-1.1047 -1.523073,-1.1047 -0.163974,0 -0.601224,0.36383 -0.971654,0.80851 -0.370432,0.44469 -1.202969,1.04319 -1.850075,1.33002 -1.117834,0.49549 -1.284754,0.50719 -3.343463,0.23465 -3.493759,-0.46252 -7.249385,-2.01912 -13.228967,-5.483 l -2.559732,-1.48281 -0.06507,-28.2166 c -0.04975,-21.57321 0.0065,-28.2571 0.238754,-28.38853 0.187181,-0.10592 1.19463,0.5975 2.624756,1.83267 3.62393,3.1299 8.078706,6.07621 12.537707,8.29222 l 1.769646,0.87946 5.563451,-4.94647 c 3.059898,-2.72055 5.515598,-5.05887 5.45711,-5.19626 -0.05848,-0.13739 -0.574638,-0.26617 -1.147011,-0.28616 -1.776348,-0.0621 -6.041129,-2.9211 -12.836212,-8.60511 l -3.007009,-2.515329 -2.496404,1.697369 c -6.879198,4.67731 -17.270401,10.83103 -23.671868,14.0186 l -1.977505,0.98469 -0.07024,26.64214 c -0.07823,29.64699 0.06578,27.35274 -1.837215,29.28136 -0.506434,0.51326 -0.920776,1.05108 -0.920776,1.19515 0,0.14407 0.925047,0.68781 2.055662,1.2083 5.761389,2.65237 25.077179,12.60875 25.968017,13.38532 0.137852,0.12017 0.368234,0.18827 0.511948,0.15134 0.143711,-0.037 3.803433,-3.33976 8.132715,-7.33964 z m 43.6702124,5.60826 c 1.4985206,-0.98165 4.8729241,-3.09809 7.4986749,-4.70315 l 4.7740957,-2.91832 3.122294,1.78904 c 1.717259,0.98396 5.246208,3.11014 7.842092,4.72483 l 4.719799,2.9358 6.965724,-4.20766 c 6.318333,-3.81659 13.512992,-7.92763 19.817658,-11.32381 l 2.357057,-1.2697 0.07468,-28.94531 0.07469,-28.94531 0.576679,-1.30446 c 0.317169,-0.71745 0.921905,-1.6073 1.343857,-1.97744 0.421942,-0.37014 0.767175,-0.7536 0.767175,-0.85212 0,-0.0985 -1.756613,-1.41407 -3.903578,-2.92342 -3.254296,-2.28783 -5.606992,-4.02485 -8.959587,-6.614929 -0.410611,-0.317224 -0.713299,-0.109383 -3.583619,2.460719 -2.392466,2.14224 -8.504578,7.32095 -9.10384,7.71357 -0.04473,0.0293 0.703987,0.5573 1.663825,1.17332 0.95984,0.61602 2.234711,1.47725 2.833046,1.91387 l 1.087886,0.79383 v 31.74213 c 0,17.45816 -0.07688,31.74211 -0.170813,31.74211 -0.337555,0 -6.112612,-2.88665 -9.781196,-4.88912 l -3.742526,-2.04282 -0.06506,-28.11139 c -0.07265,-31.40891 -0.17119,-29.60429 1.723896,-31.57556 0.565862,-0.58862 1.023323,-1.21224 1.016579,-1.38582 -0.0068,-0.17357 -1.342114,-1.21209 -2.967485,-2.30778 -1.625358,-1.09571 -4.581271,-3.22007 -6.568679,-4.72081 l -3.613471,-2.728628 -3.84993,3.407958 c -3.185322,2.81965 -4.6832047,4.04388 -8.5339945,6.97496 -0.042103,0.032 0.8793999,0.66489 2.0477823,1.40632 1.1683815,0.74144 2.4410983,1.61734 2.8282582,1.94642 l 0.703917,0.59835 v 31.71396 c 0,17.44268 -0.06679,31.71396 -0.148432,31.71396 -0.307214,0 -8.3240756,-4.14821 -12.1382529,-6.28077 -2.182167,-1.22008 -4.6864326,-2.59998 -5.5650361,-3.06644 -0.8786024,-0.46645 -1.5985264,-0.93738 -1.5998294,-1.0465 -0.0013,-0.10913 0.475319,-0.68921 1.0591593,-1.28907 1.3534783,-1.39061 2.8115165,-4.21273 3.7160499,-7.19265 l 0.7089268,-2.3355 0.092087,-15 c 0.1218331,-19.84577 -0.1375983,-22.75648 -2.3947087,-26.86773 -1.4960511,-2.725 -2.2392603,-3.58887 -6.6267239,-7.70259 -4.378163,-4.105 -5.564933,-5.47582 -6.323879,-7.304678 -1.149985,-2.771129 -0.21417,-6.518841 2.401196,-9.616323 l 0.731479,-0.866325 -0.690941,-0.331477 c -0.64119,-0.307605 -0.784327,-0.278974 -1.98769,0.397575 -1.753665,0.985937 -4.843576,3.695628 -6.175428,5.415527 -1.320269,1.704938 -2.478765,3.811475 -2.96517,5.391646 -0.473344,1.537745 -0.470076,6.403745 0.0054,7.968745 0.421598,1.38783 1.986309,4.33002 3.36841,6.33376 1.255025,1.81954 2.144015,3.66142 2.864153,5.93422 l 0.568604,1.79452 v 24.84376 24.84374 l -0.710431,1.3246 c -0.390744,0.72855 -0.995482,1.49563 -1.343854,1.70463 -0.348385,0.20901 -0.633426,0.51054 -0.633426,0.67008 0,0.15952 0.950293,0.80986 2.111772,1.44519 2.811567,1.53795 17.3191315,10.01908 18.662766,10.91027 0.5829747,0.38667 1.11247242,0.70305 1.17666282,0.70305 0.064187,0 1.3427662,-0.80318 2.84128678,-1.78485 z"
       id="path886" /><path
       style="fill:#ffffff;stroke-width:1.89437"
       d="m 270.895,434.7038 c -20.83808,-12.36104 -38.72599,-22.79995 -39.75092,-23.19757 -1.02492,-0.39763 0.46689,-3.49247 3.31515,-6.87744 l 5.17865,-6.15447 v -95.50005 c 0,-108.32698 1.12804,-99.53018 -16.73526,-130.50705 -9.50746,-16.48694 -9.78593,-17.39202 -9.78593,-31.80618 0,-11.20273 0.94801,-16.69457 3.87079,-22.42371 4.75646,-9.32343 15.4613,-21.408589 25.30259,-28.565188 11.4397,-8.318968 13.42382,-6.947252 6.83586,4.725968 -6.12745,10.85725 -7.62032,24.29848 -3.57363,32.17567 1.16913,2.27578 11.68466,13.94116 23.36785,25.92305 22.31901,22.88963 28.03913,31.86092 31.30937,49.10481 1.06285,5.6044 1.92259,38.79255 1.92259,74.21679 0,60.70173 -0.21278,64.6568 -4.03734,75.04267 -2.22053,6.03002 -6.99993,15.1413 -10.62088,20.24727 -6.1478,8.66916 -6.35469,9.42145 -3.12587,11.36623 13.0173,7.84061 68.43245,37.05288 70.35287,37.08674 1.87009,0.033 2.3672,-25.35021 2.36431,-120.72438 l -0.004,-120.76612 -9.46819,-6.45319 c -5.20751,-3.54925 -9.40496,-6.95912 -9.32768,-7.57748 0.1581,-1.26499 40.89721,-34.91316 43.31994,-35.77979 1.16799,-0.4178 42.52589,28.3984 47.33477,32.98059 0.44694,0.42587 -1.25799,3.53435 -3.78874,6.90772 l -4.60143,6.13341 V 284.15559 394.02908 L 445.79,406.99251 c 13.88183,7.12988 25.81636,12.38738 26.52118,11.68332 0.7048,-0.70406 1.52253,-55.12819 1.81716,-120.94255 l 0.53571,-119.66244 -10.48415,-6.74416 -10.48413,-6.74415 21.89406,-18.51834 c 12.19779,-10.31709 23.01762,-18.08717 24.43107,-17.54478 1.39537,0.53545 12.40686,8.27657 24.46998,17.2025 l 21.93295,16.22896 -4.68489,6.90356 -4.68488,6.90356 -0.0343,110.08274 -0.0345,110.08273 -17.48853,9.2959 c -9.6187,5.11273 -33.9841,19.0237 -54.14531,30.91323 -20.16122,11.88954 -37.71418,21.21157 -39.00657,20.71564 -1.2924,-0.49594 -14.52342,-8.22651 -29.40231,-17.17906 -14.8789,-8.95253 -27.61349,-16.27734 -28.29911,-16.27734 -0.68563,0 -13.5574,7.6722 -28.60395,17.04933 -15.04654,9.37714 -28.2348,16.97912 -29.30723,16.8933 -1.07244,-0.0858 -18.99922,-10.26963 -39.83729,-22.63066 z"
       id="path1555"
       transform="matrix(0.26458333,0,0,0.26458333,-83.171284,66.630634)" /><path
       style="fill:#ffffff;stroke-width:1.89437"
       d="M 119.29326,454.87348 C 117.2381,453.43414 94.063059,441.23157 67.793164,427.75667 l -47.763441,-24.4998 4.192918,-4.19149 4.192918,-4.19148 0.549309,-102.74189 0.54931,-102.74189 19.215526,-10.39557 c 23.130485,-12.51355 52.091116,-29.831 71.940886,-43.01814 l 14.58584,-9.69006 16.77317,13.57884 c 21.73572,17.5963 30.91794,23.84147 39.28122,26.71663 l 6.80674,2.34004 -19.04044,16.8879 c -10.47225,9.28834 -20.14372,17.13136 -21.49216,17.42894 -3.86705,0.85338 -26.65485,-12.58884 -45.16608,-26.64287 -9.30892,-7.06749 -17.73905,-12.34706 -18.733612,-11.73239 -1.113475,0.68817 -1.808294,42.07031 -1.808294,107.69878 V 379.1434 l 15.628556,8.73631 c 20.49403,11.45609 33.50299,16.41575 46.66682,17.79163 9.62708,1.00623 11.35422,0.6208 16.45642,-3.67241 5.50318,-4.63062 5.85155,-4.68266 10.06605,-1.50366 l 4.36559,3.29297 -12.01946,11.41222 c -25.43636,24.15127 -46.01103,42.29004 -47.96928,42.29004 -1.12296,0 -3.72324,-1.17765 -5.77841,-2.61702 z"
       id="path1557"
       transform="matrix(0.26458333,0,0,0.26458333,-83.171284,66.630634)" /></g></svg>
